<?xml version="1.0" encoding="UTF-8"?>
<svg width="1024px" height="1024px" viewBox="0 0 1024 1024" version="1.1" xmlns="http://www.w3.org/2000/svg" xmlns:xlink="http://www.w3.org/1999/xlink">
    <title>jslive@1x</title>
    <g id="jslive" stroke="none" stroke-width="1" fill="none" fill-rule="evenodd">
        <rect fill="#FFFFFF" x="0" y="0" width="1024" height="1024"></rect>
        <polygon id="Path" fill="#282A36" fill-rule="nonzero" points="0 0 1024 0 1024 1024 0 1024"></polygon>
        <path d="M269,855.948978 L347.362824,808.48358 C362.480171,835.311283 376.232226,858.010147 409.218632,858.010147 C440.838118,858.010147 460.772991,845.630131 460.772991,797.476595 L460.772991,470 L557,470 L557,798.838233 C557,898.594141 498.57855,944 413.34376,944 C336.365731,944 291.681709,904.096008 269,855.940843" id="Path" fill="#7B86C9" fill-rule="nonzero"></path>
        <path d="M609,845.726006 L687.413427,800.368902 C708.055391,834.046685 734.883432,858.785002 782.345303,858.785002 C822.248217,858.785002 847.693621,838.853618 847.693621,811.364072 C847.693621,778.376938 821.555271,766.692742 777.528845,747.456887 L753.459571,737.140993 C683.977983,707.595742 637.887361,670.48583 637.887361,592.139969 C637.887361,519.980721 692.917952,465 778.908229,465 C840.13141,465 884.156206,486.306189 915.795826,541.972684 L840.814593,590.076142 C824.304279,560.52764 806.424341,548.846696 778.909858,548.846696 C750.705684,548.846696 732.819237,566.714249 732.819237,590.076142 C732.819237,618.940489 750.705684,630.626309 791.974968,648.49549 L816.049122,658.803258 C897.909383,693.854218 944,729.586082 944,809.989267 C944,896.585568 875.899424,944 784.411128,944 C694.985402,944 637.200924,901.394125 609,845.726006" id="Path" fill="#7B86C9" fill-rule="nonzero"></path>
    </g>
</svg>