<?xml version="1.0" encoding="UTF-8"?>
<svg width="1024px" height="1024px" viewBox="0 0 1024 1024" version="1.1" xmlns="http://www.w3.org/2000/svg" xmlns:xlink="http://www.w3.org/1999/xlink">
    <title>jslive</title>
    <g id="jslive" stroke="none" stroke-width="1" fill="none" fill-rule="evenodd">
        <g id="Group" transform="translate(77, 77)" fill-rule="nonzero">
            <path d="M170,0 L700,0 C793.888407,-2.84217094e-14 870,76.1115925 870,170 L870,700 C870,793.888407 793.888407,870 700,870 L170,870 C76.1115925,870 -2.84217094e-14,793.888407 0,700 L0,170 C0,76.1115925 76.1115925,-2.84217094e-14 170,0 Z" id="Path" fill="#282A36"></path>
            <path d="M228.544922,727.222276 L295.122712,686.895229 C307.966551,709.688297 319.650427,728.973465 347.675986,728.973465 C374.540198,728.973465 391.477053,718.455287 391.477053,677.543591 L391.477053,399.316406 L473.232422,399.316406 L473.232422,678.700452 C473.232422,763.454007 423.59701,802.03125 351.180734,802.03125 C285.779478,802.03125 247.815514,768.128444 228.544922,727.215365" id="Path" fill="#7B86C9"></path>
            <path d="M517.412109,718.536743 L584.032892,680.000922 C601.570498,708.613883 624.363854,729.631789 664.687904,729.631789 C698.589794,729.631789 720.208447,712.697898 720.208447,689.342522 C720.208447,661.316344 698.00106,651.389342 660.595796,635.046378 L640.146315,626.281898 C581.114106,601.179976 541.955082,569.651047 541.955082,503.087669 C541.955082,441.780495 588.709588,395.068359 661.767733,395.068359 C713.783522,395.068359 751.187402,413.170297 778.068719,460.465074 L714.363961,501.334222 C700.336643,476.229538 685.14568,466.305298 661.769118,466.305298 C637.806587,466.305298 622.610094,481.485739 622.610094,501.334222 C622.610094,525.857642 637.806587,535.786024 672.869357,550.967848 L693.322984,559.725424 C762.872229,589.505049 802.03125,619.863175 802.03125,688.174475 C802.03125,761.747504 744.172362,802.03125 666.443048,802.03125 C590.466113,802.03125 541.371879,765.832899 517.412109,718.536743" id="Path" fill="#7B86C9"></path>
        </g>
    </g>
</svg>